<svg xmlns="http://www.w3.org/2000/svg" xmlns:xlink="http://www.w3.org/1999/xlink" width="500" zoomAndPan="magnify" viewBox="0 0 375 374.999991" height="500" preserveAspectRatio="xMidYMid meet" version="1.0"><defs><g/><clipPath id="3ead54aa00"><path d="M 80.125 145.417969 L 294.625 145.417969 L 294.625 236.917969 L 80.125 236.917969 Z M 80.125 145.417969 " clip-rule="nonzero"/></clipPath><clipPath id="4cdad9ab58"><path d="M 58.5 58.5 L 316.5 58.5 L 316.5 316.5 L 58.5 316.5 Z M 58.5 58.5 " clip-rule="nonzero"/></clipPath><clipPath id="dfb6a7bfce"><path d="M 187.5 316.5 C 153.058594 316.5 120.628906 303.09375 96.292969 278.707031 C 71.90625 254.371094 58.5 221.941406 58.5 187.5 C 58.5 153.058594 71.90625 120.628906 96.292969 96.292969 C 120.628906 71.90625 153.058594 58.5 187.5 58.5 C 221.941406 58.5 254.371094 71.90625 278.707031 96.292969 C 303.09375 120.679688 316.5 153.058594 316.5 187.5 C 316.5 221.941406 303.09375 254.371094 278.707031 278.707031 C 254.371094 303.09375 221.941406 316.5 187.5 316.5 Z M 187.5 66.234375 C 155.121094 66.234375 124.648438 78.867188 101.757812 101.757812 C 78.867188 124.648438 66.234375 155.121094 66.234375 187.5 C 66.234375 219.878906 78.867188 250.351562 101.757812 273.242188 C 124.648438 296.132812 155.121094 308.765625 187.5 308.765625 C 219.878906 308.765625 250.351562 296.132812 273.242188 273.242188 C 296.132812 250.351562 308.765625 219.878906 308.765625 187.5 C 308.765625 155.121094 296.132812 124.648438 273.242188 101.757812 C 250.351562 78.867188 219.878906 66.234375 187.5 66.234375 Z M 187.5 66.234375 " clip-rule="nonzero"/></clipPath><clipPath id="483cb44eaf"><path d="M 156.277344 104.796875 L 218.527344 104.796875 L 218.527344 270.546875 L 156.277344 270.546875 Z M 156.277344 104.796875 " clip-rule="nonzero"/></clipPath></defs><g clip-path="url(#3ead54aa00)"><path fill="#112241" d="M 288.226562 216.128906 C 285.503906 225.394531 281.347656 234.191406 276.191406 242.289062 C 271.933594 248.878906 267.089844 255.074219 261.648438 260.707031 C 260.945312 261.476562 260.160156 262.167969 259.410156 262.894531 C 258.652344 263.605469 257.914062 264.34375 257.136719 265.039062 L 254.777344 267.089844 L 253.601562 268.117188 L 252.375 269.089844 L 249.933594 271.042969 C 249.105469 271.675781 248.25 272.273438 247.414062 272.890625 C 245.757812 274.160156 243.996094 275.277344 242.269531 276.449219 C 242.019531 276.617188 241.757812 276.792969 241.484375 276.976562 C 241.203125 277.144531 240.914062 277.320312 240.605469 277.503906 C 240 277.867188 239.34375 278.257812 238.644531 278.675781 C 237.265625 279.542969 235.636719 280.355469 233.875 281.292969 C 233.433594 281.523438 232.988281 281.769531 232.519531 281.996094 C 232.046875 282.214844 231.570312 282.4375 231.078125 282.664062 C 230.101562 283.117188 229.085938 283.585938 228.039062 284.070312 C 225.894531 284.90625 223.65625 285.914062 221.21875 286.695312 C 211.585938 290.1875 199.5625 292.347656 187.5 292.398438 C 175.433594 292.347656 163.414062 290.1875 153.78125 286.695312 C 151.339844 285.914062 149.101562 284.90625 146.957031 284.070312 C 145.910156 283.585938 144.898438 283.117188 143.917969 282.664062 C 143.429688 282.4375 142.949219 282.214844 142.476562 281.996094 C 142.007812 281.773438 141.566406 281.523438 141.121094 281.292969 C 139.363281 280.359375 137.730469 279.542969 136.351562 278.675781 C 135.652344 278.257812 135 277.867188 134.390625 277.503906 C 134.085938 277.320312 133.792969 277.144531 133.511719 276.976562 C 133.238281 276.792969 132.976562 276.617188 132.730469 276.449219 C 126.175781 272.15625 120.019531 267.277344 114.421875 261.796875 C 108.519531 255.898438 103.355469 249.292969 98.808594 242.289062 C 93.648438 234.191406 89.492188 225.394531 86.769531 216.128906 C 83.933594 206.890625 82.621094 197.195312 82.539062 187.5 C 82.621094 177.800781 83.933594 168.105469 86.769531 158.867188 C 89.492188 149.601562 93.648438 140.808594 98.804688 132.707031 C 103.0625 126.117188 107.90625 119.921875 113.347656 114.289062 C 114.050781 113.519531 114.835938 112.828125 115.585938 112.101562 C 116.34375 111.390625 117.082031 110.652344 117.859375 109.957031 L 120.21875 107.90625 L 121.398438 106.878906 L 122.621094 105.90625 L 125.0625 103.953125 C 125.890625 103.320312 126.746094 102.722656 127.582031 102.105469 C 129.238281 100.835938 131.003906 99.71875 132.726562 98.546875 C 132.976562 98.378906 133.238281 98.203125 133.511719 98.019531 C 133.792969 97.851562 134.085938 97.675781 134.390625 97.492188 C 134.996094 97.128906 135.652344 96.738281 136.351562 96.320312 C 137.730469 95.453125 139.359375 94.640625 141.121094 93.703125 C 141.566406 93.476562 142.007812 93.226562 142.476562 93 C 142.949219 92.78125 143.429688 92.558594 143.917969 92.332031 C 144.894531 91.878906 145.910156 91.410156 146.957031 90.925781 C 149.101562 90.089844 151.339844 89.082031 153.777344 88.300781 C 163.414062 84.808594 175.433594 82.648438 187.5 82.597656 C 199.5625 82.648438 211.585938 84.808594 221.214844 88.300781 C 223.65625 89.082031 225.894531 90.089844 228.039062 90.925781 C 229.085938 91.410156 230.097656 91.878906 231.078125 92.332031 C 231.566406 92.558594 232.046875 92.78125 232.519531 93 C 232.988281 93.222656 233.429688 93.476562 233.875 93.703125 C 235.632812 94.636719 237.265625 95.453125 238.644531 96.320312 C 239.34375 96.738281 239.996094 97.128906 240.605469 97.492188 C 240.910156 97.675781 241.203125 97.851562 241.484375 98.019531 C 241.757812 98.203125 242.019531 98.378906 242.265625 98.546875 C 248.820312 102.839844 254.976562 107.71875 260.574219 113.199219 C 266.476562 119.097656 271.640625 125.703125 276.1875 132.707031 C 281.347656 140.804688 285.503906 149.601562 288.226562 158.867188 C 291.0625 168.105469 292.375 177.800781 292.457031 187.5 C 292.375 197.195312 291.0625 206.890625 288.226562 216.128906 Z M 294.871094 187.425781 L 294.867188 187.417969 C 294.78125 177.519531 293.449219 167.613281 290.5625 158.164062 C 287.789062 148.691406 283.542969 139.699219 278.246094 131.4375 L 275.699219 127.609375 C 275.699219 127.609375 274.960938 126.582031 273.859375 125.039062 C 272.796875 123.460938 271.171875 121.519531 269.617188 119.523438 C 267.941406 117.628906 266.339844 115.671875 264.988281 114.335938 C 263.675781 112.964844 262.800781 112.054688 262.800781 112.054688 C 262.800781 112.054688 262.582031 111.828125 262.183594 111.445312 C 261.785156 111.0625 261.21875 110.511719 260.535156 109.855469 C 259.207031 108.5 257.273438 106.867188 255.382812 105.191406 C 254.410156 104.382812 253.410156 103.609375 252.484375 102.867188 C 252.023438 102.5 251.574219 102.140625 251.148438 101.804688 C 250.707031 101.484375 250.292969 101.1875 249.90625 100.910156 C 248.371094 99.796875 247.34375 99.058594 247.34375 99.058594 C 247.34375 99.058594 247.121094 98.878906 246.757812 98.644531 C 246.402344 98.40625 245.925781 98.085938 245.449219 97.765625 C 244.496094 97.128906 243.539062 96.488281 243.539062 96.488281 C 243.285156 96.316406 243.019531 96.136719 242.742188 95.949219 C 242.453125 95.773438 242.15625 95.59375 241.84375 95.40625 C 241.222656 95.03125 240.550781 94.628906 239.839844 94.203125 C 238.429688 93.3125 236.761719 92.476562 234.960938 91.515625 C 234.507812 91.28125 234.050781 91.023438 233.574219 90.796875 C 233.09375 90.570312 232.601562 90.339844 232.101562 90.109375 C 231.101562 89.644531 230.0625 89.164062 228.992188 88.667969 C 226.796875 87.804688 224.507812 86.777344 222.007812 85.972656 C 212.152344 82.390625 199.84375 80.171875 187.5 80.125 C 175.152344 80.171875 162.84375 82.390625 152.984375 85.972656 C 150.488281 86.777344 148.199219 87.804688 146.003906 88.667969 C 144.933594 89.164062 143.898438 89.644531 142.894531 90.109375 C 142.394531 90.34375 141.902344 90.570312 141.421875 90.796875 C 140.941406 91.023438 140.488281 91.28125 140.035156 91.515625 C 138.234375 92.476562 136.566406 93.3125 135.15625 94.203125 C 134.445312 94.628906 133.773438 95.03125 133.152344 95.40625 C 132.839844 95.59375 132.542969 95.777344 132.253906 95.949219 C 131.976562 96.136719 131.710938 96.316406 131.453125 96.488281 C 131.453125 96.488281 130.5 97.128906 129.546875 97.765625 C 129.070312 98.085938 128.59375 98.40625 128.238281 98.644531 C 127.875 98.878906 127.652344 99.058594 127.652344 99.058594 C 127.652344 99.058594 126.628906 99.796875 125.089844 100.910156 C 124.703125 101.1875 124.289062 101.484375 123.847656 101.804688 C 123.421875 102.140625 122.976562 102.5 122.511719 102.867188 C 121.585938 103.609375 120.585938 104.382812 119.617188 105.191406 C 117.722656 106.867188 115.792969 108.5 114.460938 109.855469 C 113.777344 110.511719 113.210938 111.0625 112.8125 111.445312 C 112.414062 111.828125 112.195312 112.054688 112.195312 112.054688 C 112.195312 112.054688 111.320312 112.964844 110.007812 114.335938 C 108.65625 115.671875 107.054688 117.628906 105.378906 119.523438 C 103.824219 121.519531 102.199219 123.460938 101.136719 125.039062 C 100.03125 126.582031 99.296875 127.609375 99.296875 127.609375 L 96.75 131.4375 C 91.453125 139.699219 87.207031 148.691406 84.433594 158.164062 C 81.546875 167.613281 80.214844 177.519531 80.128906 187.417969 L 80.125 187.425781 L 80.125 187.570312 L 80.128906 187.578125 C 80.214844 197.476562 81.546875 207.386719 84.433594 216.832031 C 87.207031 226.304688 91.453125 235.300781 96.75 243.558594 L 99.296875 247.386719 C 99.296875 247.386719 100.035156 248.414062 101.136719 249.960938 C 102.199219 251.535156 103.824219 253.476562 105.378906 255.472656 C 107.054688 257.367188 108.65625 259.324219 110.007812 260.660156 C 111.320312 262.027344 112.195312 262.941406 112.195312 262.941406 C 112.195312 262.941406 112.414062 263.167969 112.8125 263.550781 C 113.210938 263.933594 113.777344 264.484375 114.460938 265.140625 C 115.792969 266.496094 117.722656 268.128906 119.617188 269.804688 C 120.585938 270.613281 121.585938 271.386719 122.511719 272.128906 C 122.976562 272.496094 123.421875 272.855469 123.847656 273.191406 C 124.289062 273.511719 124.703125 273.808594 125.089844 274.085938 C 126.628906 275.199219 127.652344 275.9375 127.652344 275.9375 C 127.652344 275.9375 127.875 276.117188 128.238281 276.351562 C 128.59375 276.589844 129.070312 276.910156 129.546875 277.230469 C 130.5 277.867188 131.457031 278.507812 131.457031 278.507812 C 131.710938 278.679688 131.976562 278.859375 132.253906 279.046875 C 132.542969 279.222656 132.839844 279.402344 133.152344 279.589844 C 133.773438 279.964844 134.445312 280.367188 135.15625 280.792969 C 136.566406 281.683594 138.234375 282.519531 140.035156 283.480469 C 140.488281 283.714844 140.945312 283.972656 141.421875 284.199219 C 141.902344 284.425781 142.394531 284.65625 142.894531 284.886719 C 143.898438 285.351562 144.933594 285.832031 146.003906 286.328125 C 148.199219 287.191406 150.488281 288.21875 152.988281 289.023438 C 162.84375 292.605469 175.152344 294.820312 187.5 294.871094 C 199.84375 294.820312 212.152344 292.605469 222.011719 289.023438 C 224.507812 288.21875 226.796875 287.191406 228.992188 286.328125 C 230.0625 285.832031 231.101562 285.351562 232.101562 284.886719 C 232.601562 284.652344 233.09375 284.425781 233.574219 284.199219 C 234.054688 283.972656 234.507812 283.714844 234.960938 283.480469 C 236.761719 282.519531 238.429688 281.683594 239.839844 280.792969 C 240.550781 280.367188 241.222656 279.964844 241.84375 279.589844 C 242.15625 279.402344 242.453125 279.21875 242.742188 279.046875 C 243.019531 278.859375 243.285156 278.679688 243.542969 278.507812 C 243.542969 278.507812 244.496094 277.867188 245.449219 277.230469 C 245.925781 276.910156 246.402344 276.589844 246.757812 276.351562 C 247.121094 276.117188 247.34375 275.9375 247.34375 275.9375 C 247.34375 275.9375 248.371094 275.199219 249.90625 274.085938 C 250.292969 273.808594 250.707031 273.511719 251.148438 273.191406 C 251.574219 272.855469 252.023438 272.496094 252.484375 272.128906 C 253.410156 271.386719 254.410156 270.613281 255.382812 269.804688 C 257.273438 268.128906 259.207031 266.496094 260.535156 265.140625 C 261.21875 264.484375 261.785156 263.933594 262.183594 263.550781 C 262.582031 263.167969 262.800781 262.941406 262.800781 262.941406 C 262.800781 262.941406 263.675781 262.027344 264.988281 260.660156 C 266.339844 259.324219 267.941406 257.367188 269.617188 255.472656 C 271.171875 253.476562 272.796875 251.535156 273.859375 249.960938 C 274.964844 248.414062 275.699219 247.386719 275.699219 247.386719 L 278.246094 243.558594 C 283.542969 235.300781 287.789062 226.304688 290.5625 216.832031 C 293.449219 207.382812 294.78125 197.476562 294.867188 187.578125 L 294.871094 187.570312 L 294.871094 187.425781 " fill-opacity="1" fill-rule="nonzero"/></g><g clip-path="url(#4cdad9ab58)"><g clip-path="url(#dfb6a7bfce)"><path fill="#112241" d="M 58.5 58.5 L 316.5 58.5 L 316.5 316.5 L 58.5 316.5 Z M 58.5 58.5 " fill-opacity="1" fill-rule="nonzero"/></g></g><g clip-path="url(#483cb44eaf)"><path fill="#000000" d="M 197.578125 188.492188 C 206.542969 192.085938 212.785156 200.273438 212.785156 209.734375 C 212.785156 214.015625 211.507812 218.03125 209.285156 221.480469 C 208.535156 222.644531 208.746094 224.179688 209.78125 225.097656 C 215.203125 229.929688 218.527344 236.507812 218.527344 243.71875 C 218.527344 258.441406 204.648438 270.53125 187.402344 270.53125 C 170.160156 270.53125 156.28125 258.441406 156.28125 243.71875 C 156.28125 236.507812 159.605469 229.929688 165.027344 225.09375 C 166.058594 224.179688 166.269531 222.644531 165.523438 221.484375 C 163.296875 218.03125 162.023438 214.015625 162.023438 209.734375 C 162.023438 200.273438 168.265625 192.085938 177.230469 188.492188 L 177.230469 131.398438 C 176.058594 129.851562 175.253906 128.058594 174.871094 126.160156 C 174.226562 126.570312 173.4375 126.816406 172.578125 126.816406 C 170.324219 126.816406 168.5625 125.132812 168.5625 123.152344 C 168.5625 121.171875 170.324219 119.488281 172.578125 119.488281 C 173.328125 119.488281 174.023438 119.675781 174.617188 120 L 174.617188 115.875 C 173.960938 116.3125 173.148438 116.574219 172.261719 116.574219 C 170.007812 116.574219 168.246094 114.894531 168.246094 112.914062 C 168.246094 110.929688 170.007812 109.25 172.261719 109.25 C 173.148438 109.25 173.960938 109.511719 174.617188 109.949219 L 174.617188 106.394531 C 174.617188 105.519531 175.324219 104.808594 176.195312 104.808594 L 198.613281 104.808594 C 199.484375 104.808594 200.1875 105.519531 200.1875 106.394531 L 200.1875 109.949219 C 200.847656 109.511719 201.660156 109.25 202.546875 109.25 C 204.800781 109.25 206.5625 110.929688 206.5625 112.914062 C 206.5625 114.894531 204.800781 116.574219 202.546875 116.574219 C 201.660156 116.574219 200.847656 116.3125 200.1875 115.875 L 200.1875 120 C 200.785156 119.675781 201.480469 119.488281 202.230469 119.488281 C 204.484375 119.488281 206.246094 121.171875 206.246094 123.152344 C 206.246094 125.132812 204.484375 126.816406 202.230469 126.816406 C 201.371094 126.816406 200.582031 126.570312 199.9375 126.160156 C 199.554688 128.058594 198.75 129.851562 197.578125 131.398438 Z M 177.230469 191.941406 C 170.085938 195.257812 165.175781 201.964844 165.175781 209.734375 C 165.175781 214.242188 166.828125 218.390625 169.605469 221.726562 C 169.613281 221.734375 169.621094 221.742188 169.628906 221.75 C 170.125 222.347656 170.351562 223.121094 170.257812 223.890625 C 170.164062 224.664062 169.753906 225.359375 169.128906 225.816406 C 163.203125 230.140625 159.433594 236.539062 159.433594 243.71875 C 159.433594 256.84375 172.03125 267.363281 187.402344 267.363281 C 202.777344 267.363281 215.375 256.84375 215.375 243.71875 C 215.375 236.539062 211.605469 230.140625 205.679688 225.816406 C 205.054688 225.359375 204.644531 224.664062 204.550781 223.890625 C 204.457031 223.121094 204.683594 222.347656 205.179688 221.75 C 205.1875 221.742188 205.195312 221.734375 205.203125 221.726562 C 207.980469 218.390625 209.632812 214.242188 209.632812 209.734375 C 209.632812 201.964844 204.722656 195.257812 197.578125 191.941406 L 197.578125 198.75 C 197.578125 199.308594 197.292969 199.800781 196.855469 200.082031 L 196.855469 214.5625 C 197.914062 216.269531 198.523438 218.285156 198.523438 220.441406 C 198.523438 222.601562 197.914062 224.617188 196.855469 226.324219 L 196.855469 242.597656 L 198.332031 242.597656 C 199.203125 242.597656 199.910156 243.308594 199.910156 244.183594 L 199.910156 252.933594 C 199.910156 253.808594 199.203125 254.519531 198.332031 254.519531 L 176.476562 254.519531 C 175.601562 254.519531 174.898438 253.808594 174.898438 252.933594 L 174.898438 244.183594 C 174.898438 243.308594 175.601562 242.597656 176.476562 242.597656 L 177.558594 242.597656 L 177.558594 225.636719 C 176.746094 224.082031 176.285156 222.316406 176.285156 220.441406 C 176.285156 218.566406 176.746094 216.800781 177.558594 215.25 L 177.558594 199.71875 C 177.351562 199.453125 177.230469 199.117188 177.230469 198.75 Z M 180.382812 134.359375 L 180.382812 187.449219 C 181.332031 187.203125 182.300781 187 183.289062 186.855469 L 183.289062 135.785156 C 182.265625 135.4375 181.289062 134.957031 180.382812 134.359375 Z M 196.261719 127.417969 C 196.765625 126.230469 197.035156 124.9375 197.035156 123.617188 L 197.035156 107.980469 L 177.773438 107.980469 L 177.773438 123.617188 C 177.773438 124.9375 178.042969 126.230469 178.546875 127.417969 C 179.027344 128.546875 179.714844 129.582031 180.59375 130.464844 C 180.628906 130.5 180.664062 130.535156 180.703125 130.570312 C 182.496094 132.316406 184.898438 133.296875 187.402344 133.296875 C 189.910156 133.296875 192.3125 132.316406 194.105469 130.570312 C 194.144531 130.535156 194.179688 130.5 194.214844 130.464844 C 195.089844 129.582031 195.78125 128.546875 196.261719 127.417969 Z M 194.421875 187.449219 L 194.421875 134.359375 C 193.402344 135.035156 192.292969 135.554688 191.125 135.914062 L 191.125 186.796875 C 192.25 186.949219 193.351562 187.167969 194.421875 187.449219 Z M 179.664062 200.335938 L 179.664062 212.425781 C 180.699219 211.414062 181.929688 210.605469 183.289062 210.058594 L 183.289062 200.335938 Z M 185.394531 200.335938 L 185.394531 209.449219 C 186.046875 209.328125 186.71875 209.269531 187.402344 209.269531 C 187.953125 209.269531 188.492188 209.308594 189.023438 209.386719 L 189.023438 200.335938 Z M 191.125 200.335938 L 191.125 209.910156 C 192.472656 210.390625 193.703125 211.128906 194.753906 212.058594 L 194.753906 200.335938 Z M 189.023438 136.367188 C 188.488281 136.433594 187.949219 136.46875 187.402344 136.46875 C 186.726562 136.46875 186.054688 136.414062 185.394531 136.308594 L 185.394531 186.621094 C 186.058594 186.574219 186.726562 186.550781 187.402344 186.550781 C 187.949219 186.550781 188.488281 186.566406 189.023438 186.597656 Z M 183.289062 190.066406 C 182.296875 190.234375 181.328125 190.460938 180.382812 190.742188 L 180.382812 197.164062 L 183.289062 197.164062 Z M 191.125 197.164062 L 194.421875 197.164062 L 194.421875 190.742188 C 193.355469 190.421875 192.253906 190.175781 191.125 190.003906 Z M 185.394531 189.804688 L 185.394531 197.164062 L 189.023438 197.164062 L 189.023438 189.773438 C 188.488281 189.738281 187.949219 189.722656 187.402344 189.722656 C 186.726562 189.722656 186.054688 189.75 185.394531 189.804688 Z M 172.578125 121.601562 C 171.554688 121.601562 170.664062 122.257812 170.664062 123.152344 C 170.664062 124.050781 171.554688 124.703125 172.578125 124.703125 C 173.597656 124.703125 174.488281 124.050781 174.488281 123.152344 C 174.488281 122.257812 173.597656 121.601562 172.578125 121.601562 Z M 172.261719 111.363281 C 171.242188 111.363281 170.347656 112.015625 170.347656 112.914062 C 170.347656 113.808594 171.242188 114.460938 172.261719 114.460938 C 173.28125 114.460938 174.171875 113.808594 174.171875 112.914062 C 174.171875 112.015625 173.28125 111.363281 172.261719 111.363281 Z M 202.546875 111.363281 C 201.527344 111.363281 200.636719 112.015625 200.636719 112.914062 C 200.636719 113.808594 201.527344 114.460938 202.546875 114.460938 C 203.566406 114.460938 204.460938 113.808594 204.460938 112.914062 C 204.460938 112.015625 203.566406 111.363281 202.546875 111.363281 Z M 202.230469 121.601562 C 201.210938 121.601562 200.320312 122.257812 200.320312 123.152344 C 200.320312 124.050781 201.210938 124.703125 202.230469 124.703125 C 203.253906 124.703125 204.144531 124.050781 204.144531 123.152344 C 204.144531 122.257812 203.253906 121.601562 202.230469 121.601562 Z M 183.539062 121.371094 C 184.585938 121.371094 185.433594 122.226562 185.433594 123.277344 C 185.433594 124.324219 184.585938 125.179688 183.539062 125.179688 C 182.496094 125.179688 181.648438 124.324219 181.648438 123.277344 C 181.648438 122.226562 182.496094 121.371094 183.539062 121.371094 Z M 191.269531 113.445312 C 192.3125 113.445312 193.160156 114.296875 193.160156 115.347656 C 193.160156 116.398438 192.3125 117.25 191.269531 117.25 C 190.222656 117.25 189.375 116.398438 189.375 115.347656 C 189.375 114.296875 190.222656 113.445312 191.269531 113.445312 Z M 191.269531 121.371094 C 192.3125 121.371094 193.160156 122.226562 193.160156 123.277344 C 193.160156 124.324219 192.3125 125.179688 191.269531 125.179688 C 190.222656 125.179688 189.375 124.324219 189.375 123.277344 C 189.375 122.226562 190.222656 121.371094 191.269531 121.371094 Z M 183.539062 113.445312 C 184.585938 113.445312 185.433594 114.296875 185.433594 115.347656 C 185.433594 116.398438 184.585938 117.25 183.539062 117.25 C 182.496094 117.25 181.648438 116.398438 181.648438 115.347656 C 181.648438 114.296875 182.496094 113.445312 183.539062 113.445312 Z M 179.664062 242.597656 L 183.289062 242.597656 L 183.289062 230.828125 C 181.929688 230.28125 180.699219 229.46875 179.664062 228.460938 Z M 185.394531 242.597656 L 189.023438 242.597656 L 189.023438 231.5 C 188.492188 231.578125 187.953125 231.617188 187.402344 231.617188 C 186.71875 231.617188 186.046875 231.554688 185.394531 231.433594 Z M 191.125 242.597656 L 194.753906 242.597656 L 194.753906 228.824219 C 193.703125 229.757812 192.472656 230.492188 191.125 230.976562 Z M 183.289062 213.589844 C 181.5 214.679688 180.167969 216.460938 179.664062 218.5625 L 179.664062 222.320312 C 180.167969 224.425781 181.5 226.203125 183.289062 227.296875 Z M 189.023438 212.605469 C 188.5 212.496094 187.957031 212.4375 187.402344 212.4375 C 186.710938 212.4375 186.035156 212.527344 185.394531 212.695312 L 185.394531 228.1875 C 186.035156 228.355469 186.710938 228.445312 187.402344 228.445312 C 187.957031 228.445312 188.5 228.390625 189.023438 228.28125 Z M 194.753906 217.359375 C 194.039062 215.644531 192.75 214.230469 191.125 213.367188 L 191.125 227.519531 C 192.75 226.652344 194.039062 225.242188 194.753906 223.527344 Z M 196.757812 245.769531 L 178.050781 245.769531 C 178.050781 245.769531 178.050781 251.347656 178.050781 251.347656 C 182.820312 251.347656 196.757812 251.347656 196.757812 251.347656 Z M 196.757812 245.769531 " fill-opacity="1" fill-rule="evenodd"/></g><g fill="#000000" fill-opacity="1"><g transform="translate(97.527886, 144.507071)"><g><path d="M -7.796875 -13.375 C -7.316406 -14.226562 -6.804688 -14.898438 -6.265625 -15.390625 C -5.722656 -15.878906 -5.128906 -16.265625 -4.484375 -16.546875 C -4.316406 -16.617188 -4.117188 -16.65625 -3.890625 -16.65625 C -3.660156 -16.65625 -3.4375 -16.59375 -3.21875 -16.46875 C -2.875 -16.269531 -2.648438 -15.988281 -2.546875 -15.625 C -2.441406 -15.257812 -2.488281 -14.898438 -2.6875 -14.546875 C -2.78125 -14.367188 -2.890625 -14.238281 -3.015625 -14.15625 C -3.140625 -14.070312 -3.253906 -14 -3.359375 -13.9375 C -3.816406 -13.738281 -4.21875 -13.488281 -4.5625 -13.1875 C -4.914062 -12.882812 -5.222656 -12.503906 -5.484375 -12.046875 C -5.753906 -11.578125 -5.910156 -11.082031 -5.953125 -10.5625 C -6.003906 -10.050781 -5.945312 -9.554688 -5.78125 -9.078125 C -5.625 -8.597656 -5.375 -8.15625 -5.03125 -7.75 C -4.6875 -7.34375 -4.269531 -7.003906 -3.78125 -6.734375 L -3.75 -6.71875 C -3.257812 -6.4375 -2.75 -6.253906 -2.21875 -6.171875 C -1.695312 -6.085938 -1.191406 -6.097656 -0.703125 -6.203125 C -0.222656 -6.304688 0.222656 -6.507812 0.640625 -6.8125 C 1.066406 -7.113281 1.421875 -7.507812 1.703125 -8 C 2.003906 -8.53125 2.179688 -9.03125 2.234375 -9.5 C 2.296875 -9.976562 2.28125 -10.476562 2.1875 -11 C 2.132812 -11.320312 2.1875 -11.625 2.34375 -11.90625 C 2.53125 -12.226562 2.800781 -12.4375 3.15625 -12.53125 C 3.519531 -12.632812 3.859375 -12.597656 4.171875 -12.421875 C 4.359375 -12.316406 4.5 -12.179688 4.59375 -12.015625 C 4.695312 -11.859375 4.773438 -11.6875 4.828125 -11.5 C 5.003906 -10.738281 5.035156 -9.96875 4.921875 -9.1875 C 4.804688 -8.40625 4.488281 -7.550781 3.96875 -6.625 C 3.5 -5.78125 2.910156 -5.085938 2.203125 -4.546875 C 1.492188 -4.003906 0.734375 -3.617188 -0.078125 -3.390625 C -0.898438 -3.160156 -1.753906 -3.101562 -2.640625 -3.21875 C -3.535156 -3.332031 -4.390625 -3.617188 -5.203125 -4.078125 L -5.234375 -4.09375 C -6.054688 -4.550781 -6.738281 -5.125 -7.28125 -5.8125 C -7.832031 -6.507812 -8.226562 -7.269531 -8.46875 -8.09375 C -8.71875 -8.925781 -8.789062 -9.789062 -8.6875 -10.6875 C -8.59375 -11.582031 -8.296875 -12.476562 -7.796875 -13.375 Z M -7.796875 -13.375 "/></g></g></g><g fill="#000000" fill-opacity="1"><g transform="translate(105.714282, 130.22543)"><g><path d="M -5.234375 -14.640625 C -4.597656 -15.421875 -3.867188 -16.023438 -3.046875 -16.453125 C -2.234375 -16.890625 -1.394531 -17.15625 -0.53125 -17.25 C 0.320312 -17.34375 1.175781 -17.257812 2.03125 -17 C 2.882812 -16.738281 3.671875 -16.3125 4.390625 -15.71875 L 4.421875 -15.703125 C 5.140625 -15.109375 5.703125 -14.414062 6.109375 -13.625 C 6.523438 -12.84375 6.773438 -12.015625 6.859375 -11.140625 C 6.941406 -10.265625 6.847656 -9.382812 6.578125 -8.5 C 6.316406 -7.613281 5.863281 -6.78125 5.21875 -6 C 4.582031 -5.21875 3.851562 -4.609375 3.03125 -4.171875 C 2.21875 -3.742188 1.382812 -3.484375 0.53125 -3.390625 C -0.320312 -3.296875 -1.175781 -3.375 -2.03125 -3.625 C -2.882812 -3.882812 -3.675781 -4.316406 -4.40625 -4.921875 L -4.421875 -4.9375 C -5.148438 -5.53125 -5.71875 -6.222656 -6.125 -7.015625 C -6.539062 -7.804688 -6.789062 -8.632812 -6.875 -9.5 C -6.957031 -10.375 -6.863281 -11.253906 -6.59375 -12.140625 C -6.332031 -13.023438 -5.878906 -13.859375 -5.234375 -14.640625 Z M 3.203125 -7.71875 C 3.578125 -8.175781 3.832031 -8.65625 3.96875 -9.15625 C 4.101562 -9.664062 4.132812 -10.171875 4.0625 -10.671875 C 3.988281 -11.179688 3.820312 -11.664062 3.5625 -12.125 C 3.3125 -12.582031 2.96875 -12.992188 2.53125 -13.359375 L 2.515625 -13.375 C 2.078125 -13.726562 1.601562 -13.988281 1.09375 -14.15625 C 0.582031 -14.332031 0.0703125 -14.398438 -0.4375 -14.359375 C -0.957031 -14.328125 -1.453125 -14.191406 -1.921875 -13.953125 C -2.398438 -13.710938 -2.828125 -13.367188 -3.203125 -12.921875 C -3.566406 -12.484375 -3.820312 -12.003906 -3.96875 -11.484375 C -4.113281 -10.972656 -4.148438 -10.46875 -4.078125 -9.96875 C -4.003906 -9.46875 -3.835938 -8.984375 -3.578125 -8.515625 C -3.328125 -8.046875 -2.984375 -7.632812 -2.546875 -7.28125 L -2.515625 -7.265625 C -2.085938 -6.898438 -1.617188 -6.632812 -1.109375 -6.46875 C -0.597656 -6.3125 -0.0859375 -6.25 0.421875 -6.28125 C 0.941406 -6.320312 1.441406 -6.457031 1.921875 -6.6875 C 2.410156 -6.925781 2.835938 -7.269531 3.203125 -7.71875 Z M 3.203125 -7.71875 "/></g></g></g><g fill="#000000" fill-opacity="1"><g transform="translate(117.631125, 116.087951)"><g><path d="M 0.390625 -2.015625 L -6.296875 -10.046875 C -6.554688 -10.359375 -6.671875 -10.707031 -6.640625 -11.09375 C -6.609375 -11.488281 -6.441406 -11.816406 -6.140625 -12.078125 L -5.890625 -12.28125 C -5.648438 -12.476562 -5.398438 -12.585938 -5.140625 -12.609375 C -4.890625 -12.640625 -4.640625 -12.617188 -4.390625 -12.546875 L 1.921875 -10.40625 L 0.953125 -17.03125 C 0.878906 -17.59375 1.054688 -18.054688 1.484375 -18.421875 L 1.734375 -18.625 C 2.046875 -18.882812 2.398438 -18.992188 2.796875 -18.953125 C 3.191406 -18.921875 3.519531 -18.75 3.78125 -18.4375 L 10.453125 -10.421875 C 10.703125 -10.117188 10.804688 -9.769531 10.765625 -9.375 C 10.734375 -8.988281 10.5625 -8.664062 10.25 -8.40625 C 9.9375 -8.144531 9.585938 -8.03125 9.203125 -8.0625 C 8.816406 -8.101562 8.5 -8.273438 8.25 -8.578125 L 4.046875 -13.609375 L 4.59375 -9 C 4.625 -8.738281 4.609375 -8.492188 4.546875 -8.265625 C 4.484375 -8.046875 4.347656 -7.851562 4.140625 -7.6875 C 3.941406 -7.519531 3.722656 -7.421875 3.484375 -7.390625 C 3.253906 -7.367188 3.015625 -7.394531 2.765625 -7.46875 L -1.609375 -8.8125 L 2.5625 -3.8125 C 2.820312 -3.5 2.925781 -3.15625 2.875 -2.78125 C 2.832031 -2.40625 2.660156 -2.085938 2.359375 -1.828125 C 2.046875 -1.566406 1.703125 -1.453125 1.328125 -1.484375 C 0.960938 -1.523438 0.648438 -1.703125 0.390625 -2.015625 Z M 0.390625 -2.015625 "/></g></g></g><g fill="#000000" fill-opacity="1"><g transform="translate(132.24249, 104.231434)"><g><path d="M 0.75 -1.90625 L -4.3125 -11.046875 C -4.507812 -11.398438 -4.550781 -11.769531 -4.4375 -12.15625 C -4.320312 -12.539062 -4.09375 -12.828125 -3.75 -13.015625 L -3.46875 -13.1875 C -3.1875 -13.332031 -2.914062 -13.390625 -2.65625 -13.359375 C -2.40625 -13.328125 -2.164062 -13.257812 -1.9375 -13.15625 L 3.859375 -9.859375 L 4.15625 -16.53125 C 4.175781 -17.113281 4.4375 -17.539062 4.9375 -17.8125 L 5.203125 -17.96875 C 5.554688 -18.164062 5.925781 -18.207031 6.3125 -18.09375 C 6.695312 -17.976562 6.988281 -17.742188 7.1875 -17.390625 L 12.234375 -8.265625 C 12.421875 -7.921875 12.457031 -7.554688 12.34375 -7.171875 C 12.226562 -6.796875 11.992188 -6.507812 11.640625 -6.3125 C 11.296875 -6.125 10.9375 -6.082031 10.5625 -6.1875 C 10.1875 -6.300781 9.90625 -6.53125 9.71875 -6.875 L 6.546875 -12.609375 L 6.21875 -7.96875 C 6.195312 -7.707031 6.128906 -7.472656 6.015625 -7.265625 C 5.910156 -7.054688 5.738281 -6.890625 5.5 -6.765625 C 5.269531 -6.628906 5.039062 -6.570312 4.8125 -6.59375 C 4.582031 -6.625 4.351562 -6.695312 4.125 -6.8125 L 0.078125 -8.96875 L 3.234375 -3.265625 C 3.429688 -2.910156 3.46875 -2.550781 3.34375 -2.1875 C 3.226562 -1.820312 3 -1.539062 2.65625 -1.34375 C 2.300781 -1.15625 1.941406 -1.113281 1.578125 -1.21875 C 1.222656 -1.320312 0.945312 -1.550781 0.75 -1.90625 Z M 0.75 -1.90625 "/></g></g></g><g fill="#000000" fill-opacity="1"><g transform="translate(148.840873, 95.350784)"><g><path d="M 3.4375 -15.15625 C 4.394531 -15.46875 5.332031 -15.585938 6.25 -15.515625 C 7.175781 -15.453125 8.023438 -15.226562 8.796875 -14.84375 C 9.566406 -14.46875 10.242188 -13.941406 10.828125 -13.265625 C 11.410156 -12.597656 11.847656 -11.816406 12.140625 -10.921875 L 12.140625 -10.890625 C 12.429688 -10.003906 12.539062 -9.113281 12.46875 -8.21875 C 12.394531 -7.332031 12.160156 -6.5 11.765625 -5.71875 C 11.367188 -4.9375 10.816406 -4.242188 10.109375 -3.640625 C 9.410156 -3.046875 8.582031 -2.59375 7.625 -2.28125 C 6.65625 -1.957031 5.710938 -1.828125 4.796875 -1.890625 C 3.878906 -1.960938 3.035156 -2.191406 2.265625 -2.578125 C 1.492188 -2.960938 0.816406 -3.492188 0.234375 -4.171875 C -0.347656 -4.847656 -0.785156 -5.628906 -1.078125 -6.515625 L -1.09375 -6.546875 C -1.382812 -7.441406 -1.492188 -8.332031 -1.421875 -9.21875 C -1.347656 -10.101562 -1.109375 -10.9375 -0.703125 -11.71875 C -0.304688 -12.5 0.238281 -13.1875 0.9375 -13.78125 C 1.632812 -14.382812 2.46875 -14.84375 3.4375 -15.15625 Z M 6.828125 -4.796875 C 7.390625 -4.984375 7.863281 -5.253906 8.25 -5.609375 C 8.644531 -5.960938 8.945312 -6.367188 9.15625 -6.828125 C 9.363281 -7.296875 9.484375 -7.796875 9.515625 -8.328125 C 9.546875 -8.859375 9.472656 -9.390625 9.296875 -9.921875 L 9.28125 -9.953125 C 9.101562 -10.484375 8.84375 -10.957031 8.5 -11.375 C 8.164062 -11.789062 7.769531 -12.117188 7.3125 -12.359375 C 6.863281 -12.609375 6.375 -12.757812 5.84375 -12.8125 C 5.320312 -12.875 4.785156 -12.816406 4.234375 -12.640625 C 3.679688 -12.453125 3.207031 -12.179688 2.8125 -11.828125 C 2.414062 -11.472656 2.109375 -11.066406 1.890625 -10.609375 C 1.679688 -10.148438 1.5625 -9.648438 1.53125 -9.109375 C 1.507812 -8.578125 1.585938 -8.046875 1.765625 -7.515625 L 1.765625 -7.484375 C 1.941406 -6.953125 2.195312 -6.476562 2.53125 -6.0625 C 2.875 -5.65625 3.269531 -5.328125 3.71875 -5.078125 C 4.175781 -4.828125 4.671875 -4.671875 5.203125 -4.609375 C 5.734375 -4.554688 6.273438 -4.617188 6.828125 -4.796875 Z M 6.828125 -4.796875 "/></g></g></g><g fill="#000000" fill-opacity="1"><g transform="translate(166.531232, 89.850735)"><g><path d="M 1.390625 -1.515625 L -0.03125 -11.859375 C -0.0820312 -12.265625 0.0078125 -12.625 0.25 -12.9375 C 0.5 -13.25 0.816406 -13.429688 1.203125 -13.484375 L 1.5 -13.53125 C 1.851562 -13.570312 2.148438 -13.53125 2.390625 -13.40625 C 2.628906 -13.289062 2.863281 -13.125 3.09375 -12.90625 L 9.609375 -6.40625 L 8.703125 -13.109375 C 8.648438 -13.503906 8.738281 -13.851562 8.96875 -14.15625 C 9.195312 -14.46875 9.507812 -14.648438 9.90625 -14.703125 C 10.300781 -14.753906 10.65625 -14.664062 10.96875 -14.4375 C 11.28125 -14.207031 11.460938 -13.894531 11.515625 -13.5 L 12.921875 -3.15625 C 12.972656 -2.757812 12.878906 -2.398438 12.640625 -2.078125 C 12.410156 -1.753906 12.097656 -1.566406 11.703125 -1.515625 L 11.609375 -1.5 C 11.253906 -1.457031 10.957031 -1.5 10.71875 -1.625 C 10.476562 -1.75 10.238281 -1.921875 10 -2.140625 L 3.25 -8.859375 L 4.203125 -1.890625 C 4.253906 -1.503906 4.160156 -1.15625 3.921875 -0.84375 C 3.691406 -0.53125 3.378906 -0.347656 2.984375 -0.296875 C 2.597656 -0.242188 2.25 -0.335938 1.9375 -0.578125 C 1.625 -0.816406 1.441406 -1.128906 1.390625 -1.515625 Z M 1.390625 -1.515625 "/></g></g></g><g fill="#000000" fill-opacity="1"><g transform="translate(184.117691, 87.9483)"><g/></g></g><g fill="#000000" fill-opacity="1"><g transform="translate(192.669329, 87.832041)"><g><path d="M 4.453125 -12.765625 C 4.835938 -12.722656 5.15625 -12.546875 5.40625 -12.234375 C 5.65625 -11.921875 5.753906 -11.566406 5.703125 -11.171875 L 4.9375 -5.125 C 4.800781 -4.03125 4.941406 -3.1875 5.359375 -2.59375 C 5.785156 -2.007812 6.445312 -1.660156 7.34375 -1.546875 C 8.238281 -1.429688 8.960938 -1.597656 9.515625 -2.046875 C 10.066406 -2.503906 10.410156 -3.257812 10.546875 -4.3125 L 11.328125 -10.453125 C 11.378906 -10.847656 11.5625 -11.164062 11.875 -11.40625 C 12.1875 -11.644531 12.535156 -11.742188 12.921875 -11.703125 C 13.328125 -11.648438 13.65625 -11.46875 13.90625 -11.15625 C 14.15625 -10.84375 14.253906 -10.488281 14.203125 -10.09375 L 13.4375 -4.0625 C 13.3125 -3.082031 13.066406 -2.238281 12.703125 -1.53125 C 12.335938 -0.832031 11.875 -0.273438 11.3125 0.140625 C 10.757812 0.566406 10.113281 0.859375 9.375 1.015625 C 8.644531 1.171875 7.835938 1.195312 6.953125 1.09375 C 5.210938 0.863281 3.898438 0.203125 3.015625 -0.890625 C 2.140625 -1.984375 1.820312 -3.488281 2.0625 -5.40625 L 2.84375 -11.53125 C 2.894531 -11.925781 3.078125 -12.242188 3.390625 -12.484375 C 3.703125 -12.722656 4.054688 -12.816406 4.453125 -12.765625 Z M 4.453125 -12.765625 "/></g></g></g><g fill="#000000" fill-opacity="1"><g transform="translate(209.358085, 90.202508)"><g><path d="M 4.90625 -10.84375 C 5.019531 -11.21875 5.25 -11.5 5.59375 -11.6875 C 5.945312 -11.875 6.316406 -11.910156 6.703125 -11.796875 C 7.085938 -11.679688 7.375 -11.445312 7.5625 -11.09375 C 7.75 -10.75 7.785156 -10.390625 7.671875 -10.015625 L 6.40625 -5.796875 L 13.015625 -9.328125 C 13.234375 -9.441406 13.445312 -9.515625 13.65625 -9.546875 C 13.875 -9.585938 14.101562 -9.578125 14.34375 -9.515625 C 14.738281 -9.390625 15.015625 -9.164062 15.171875 -8.84375 C 15.328125 -8.53125 15.351562 -8.203125 15.25 -7.859375 C 15.1875 -7.640625 15.082031 -7.457031 14.9375 -7.3125 C 14.789062 -7.175781 14.617188 -7.0625 14.421875 -6.96875 L 9.90625 -4.71875 L 12.3125 1.28125 C 12.375 1.457031 12.414062 1.628906 12.4375 1.796875 C 12.46875 1.972656 12.453125 2.164062 12.390625 2.375 C 12.273438 2.757812 12.046875 3.039062 11.703125 3.21875 C 11.359375 3.394531 10.984375 3.421875 10.578125 3.296875 C 10.304688 3.210938 10.101562 3.082031 9.96875 2.90625 C 9.832031 2.738281 9.710938 2.53125 9.609375 2.28125 L 7.421875 -3.515625 L 5.421875 -2.5 L 4.65625 0.015625 C 4.550781 0.390625 4.320312 0.671875 3.96875 0.859375 C 3.613281 1.054688 3.242188 1.097656 2.859375 0.984375 C 2.472656 0.867188 2.1875 0.632812 2 0.28125 C 1.820312 -0.0703125 1.785156 -0.4375 1.890625 -0.8125 Z M 4.90625 -10.84375 "/></g></g></g><g fill="#000000" fill-opacity="1"><g transform="translate(224.661165, 94.995845)"><g><path d="M 8.359375 -10.625 C 8.722656 -10.457031 8.96875 -10.179688 9.09375 -9.796875 C 9.21875 -9.421875 9.195312 -9.054688 9.03125 -8.703125 L 6.328125 -3.234375 C 5.835938 -2.242188 5.695312 -1.398438 5.90625 -0.703125 C 6.113281 -0.015625 6.625 0.53125 7.4375 0.9375 C 8.238281 1.332031 8.976562 1.40625 9.65625 1.15625 C 10.34375 0.90625 10.921875 0.304688 11.390625 -0.640625 L 14.125 -6.1875 C 14.289062 -6.539062 14.5625 -6.785156 14.9375 -6.921875 C 15.3125 -7.054688 15.675781 -7.035156 16.03125 -6.859375 C 16.394531 -6.679688 16.640625 -6.398438 16.765625 -6.015625 C 16.898438 -5.640625 16.882812 -5.273438 16.71875 -4.921875 L 14.03125 0.53125 C 13.59375 1.414062 13.085938 2.128906 12.515625 2.671875 C 11.941406 3.222656 11.320312 3.609375 10.65625 3.828125 C 9.988281 4.046875 9.28125 4.109375 8.53125 4.015625 C 7.789062 3.929688 7.023438 3.691406 6.234375 3.296875 C 4.648438 2.523438 3.617188 1.476562 3.140625 0.15625 C 2.671875 -1.164062 2.863281 -2.695312 3.71875 -4.4375 L 6.453125 -9.96875 C 6.617188 -10.320312 6.890625 -10.5625 7.265625 -10.6875 C 7.640625 -10.820312 8.003906 -10.800781 8.359375 -10.625 Z M 8.359375 -10.625 "/></g></g></g><g fill="#000000" fill-opacity="1"><g transform="translate(239.682589, 102.744707)"><g><path d="M 8.09375 -8.734375 C 8.320312 -9.054688 8.632812 -9.25 9.03125 -9.3125 C 9.425781 -9.382812 9.785156 -9.304688 10.109375 -9.078125 C 10.429688 -8.835938 10.628906 -8.519531 10.703125 -8.125 C 10.773438 -7.738281 10.695312 -7.382812 10.46875 -7.0625 L 5.171875 0.4375 L 9.53125 3.515625 C 9.820312 3.722656 10 4.003906 10.0625 4.359375 C 10.125 4.722656 10.046875 5.050781 9.828125 5.34375 C 9.617188 5.644531 9.335938 5.820312 8.984375 5.875 C 8.628906 5.9375 8.304688 5.863281 8.015625 5.65625 L 2.46875 1.734375 C 2.144531 1.503906 1.945312 1.191406 1.875 0.796875 C 1.800781 0.410156 1.878906 0.0546875 2.109375 -0.265625 Z M 8.09375 -8.734375 "/></g></g></g><g fill="#000000" fill-opacity="1"><g transform="translate(251.333125, 111.190604)"><g><path d="M 2.140625 0.0625 L 9.234375 -7.34375 C 9.503906 -7.625 9.835938 -7.769531 10.234375 -7.78125 C 10.640625 -7.789062 10.984375 -7.65625 11.265625 -7.375 L 16.515625 -2.34375 C 16.785156 -2.082031 16.921875 -1.773438 16.921875 -1.421875 C 16.929688 -1.066406 16.804688 -0.757812 16.546875 -0.5 C 16.296875 -0.238281 16 -0.109375 15.65625 -0.109375 C 15.3125 -0.109375 15.003906 -0.238281 14.734375 -0.5 L 10.515625 -4.546875 L 8.671875 -2.609375 L 12.28125 0.859375 C 12.550781 1.109375 12.6875 1.410156 12.6875 1.765625 C 12.695312 2.117188 12.570312 2.429688 12.3125 2.703125 C 12.070312 2.953125 11.773438 3.078125 11.421875 3.078125 C 11.078125 3.078125 10.769531 2.953125 10.5 2.703125 L 6.890625 -0.765625 L 4.984375 1.234375 L 9.28125 5.359375 C 9.539062 5.609375 9.671875 5.90625 9.671875 6.25 C 9.679688 6.601562 9.566406 6.910156 9.328125 7.171875 C 9.078125 7.429688 8.773438 7.5625 8.421875 7.5625 C 8.066406 7.570312 7.757812 7.453125 7.5 7.203125 L 2.171875 2.09375 C 1.890625 1.8125 1.742188 1.472656 1.734375 1.078125 C 1.722656 0.679688 1.859375 0.34375 2.140625 0.0625 Z M 2.140625 0.0625 "/></g></g></g><g fill="#000000" fill-opacity="1"><g transform="translate(262.228596, 121.990128)"><g><path d="M 10.3125 -5.9375 C 10.632812 -6.1875 10.988281 -6.28125 11.375 -6.21875 C 11.769531 -6.164062 12.085938 -5.984375 12.328125 -5.671875 C 12.566406 -5.347656 12.660156 -4.988281 12.609375 -4.59375 C 12.566406 -4.207031 12.382812 -3.890625 12.0625 -3.640625 L 4.796875 1.953125 L 8.0625 6.1875 C 8.28125 6.46875 8.363281 6.785156 8.3125 7.140625 C 8.269531 7.492188 8.109375 7.785156 7.828125 8.015625 C 7.535156 8.234375 7.207031 8.316406 6.84375 8.265625 C 6.488281 8.222656 6.203125 8.0625 5.984375 7.78125 L 1.84375 2.390625 C 1.601562 2.078125 1.507812 1.722656 1.5625 1.328125 C 1.613281 0.929688 1.796875 0.613281 2.109375 0.375 Z M 10.3125 -5.9375 "/></g></g></g><g fill="#000000" fill-opacity="1"><g transform="translate(270.863762, 133.501536)"><g><path d="M 2.015625 0.671875 L 10.984375 -4.28125 C 11.335938 -4.476562 11.703125 -4.519531 12.078125 -4.40625 C 12.460938 -4.289062 12.75 -4.0625 12.9375 -3.71875 L 16.46875 2.640625 C 16.644531 2.960938 16.679688 3.289062 16.578125 3.625 C 16.484375 3.96875 16.273438 4.226562 15.953125 4.40625 C 15.640625 4.582031 15.316406 4.617188 14.984375 4.515625 C 14.648438 4.421875 14.394531 4.210938 14.21875 3.890625 L 11.390625 -1.234375 L 9.0625 0.046875 L 11.484375 4.4375 C 11.660156 4.757812 11.695312 5.09375 11.59375 5.4375 C 11.5 5.78125 11.289062 6.039062 10.96875 6.21875 C 10.65625 6.382812 10.332031 6.414062 10 6.3125 C 9.664062 6.21875 9.410156 6.007812 9.234375 5.6875 L 6.8125 1.296875 L 4.390625 2.640625 L 7.265625 7.859375 C 7.441406 8.171875 7.476562 8.492188 7.375 8.828125 C 7.28125 9.171875 7.082031 9.425781 6.78125 9.59375 C 6.457031 9.769531 6.128906 9.804688 5.796875 9.703125 C 5.460938 9.609375 5.207031 9.40625 5.03125 9.09375 L 1.453125 2.640625 C 1.265625 2.296875 1.222656 1.929688 1.328125 1.546875 C 1.441406 1.160156 1.671875 0.867188 2.015625 0.671875 Z M 2.015625 0.671875 "/></g></g></g><g fill="#000000" fill-opacity="1"><g transform="translate(125.794673, 280.350989)"><g><path d="M 11.765625 -6.609375 C 12.535156 -6.160156 13.160156 -5.617188 13.640625 -4.984375 C 14.117188 -4.359375 14.460938 -3.679688 14.671875 -2.953125 C 14.878906 -2.234375 14.9375 -1.488281 14.84375 -0.71875 C 14.75 0.0390625 14.5 0.773438 14.09375 1.484375 L 14.078125 1.515625 C 13.671875 2.222656 13.160156 2.804688 12.546875 3.265625 C 11.929688 3.722656 11.253906 4.050781 10.515625 4.25 C 9.785156 4.445312 9.019531 4.492188 8.21875 4.390625 C 7.425781 4.296875 6.648438 4.023438 5.890625 3.578125 C 5.128906 3.148438 4.503906 2.617188 4.015625 1.984375 C 3.523438 1.347656 3.175781 0.671875 2.96875 -0.046875 C 2.769531 -0.765625 2.71875 -1.503906 2.8125 -2.265625 C 2.90625 -3.035156 3.15625 -3.773438 3.5625 -4.484375 L 3.578125 -4.515625 C 3.984375 -5.210938 4.492188 -5.796875 5.109375 -6.265625 C 5.722656 -6.734375 6.394531 -7.066406 7.125 -7.265625 C 7.863281 -7.460938 8.628906 -7.507812 9.421875 -7.40625 C 10.222656 -7.300781 11.003906 -7.035156 11.765625 -6.609375 Z M 7.046875 1.609375 C 7.492188 1.867188 7.945312 2.019531 8.40625 2.0625 C 8.863281 2.113281 9.300781 2.070312 9.71875 1.9375 C 10.144531 1.800781 10.535156 1.585938 10.890625 1.296875 C 11.242188 1.015625 11.539062 0.660156 11.78125 0.234375 L 11.796875 0.203125 C 12.035156 -0.222656 12.191406 -0.664062 12.265625 -1.125 C 12.347656 -1.582031 12.332031 -2.03125 12.21875 -2.46875 C 12.113281 -2.90625 11.925781 -3.304688 11.65625 -3.671875 C 11.382812 -4.035156 11.03125 -4.347656 10.59375 -4.609375 C 10.15625 -4.859375 9.707031 -5.007812 9.25 -5.0625 C 8.800781 -5.113281 8.363281 -5.070312 7.9375 -4.9375 C 7.519531 -4.800781 7.128906 -4.585938 6.765625 -4.296875 C 6.398438 -4.003906 6.097656 -3.648438 5.859375 -3.234375 L 5.84375 -3.203125 C 5.601562 -2.785156 5.445312 -2.34375 5.375 -1.875 C 5.300781 -1.414062 5.316406 -0.96875 5.421875 -0.53125 C 5.535156 -0.101562 5.726562 0.296875 6 0.671875 C 6.28125 1.054688 6.628906 1.367188 7.046875 1.609375 Z M 7.046875 1.609375 "/></g></g></g><g fill="#000000" fill-opacity="1"><g transform="translate(140.581259, 288.493203)"><g><path d="M 5.015625 -8.921875 C 5.140625 -9.242188 5.359375 -9.46875 5.671875 -9.59375 C 5.992188 -9.726562 6.316406 -9.734375 6.640625 -9.609375 L 10.3125 -8.140625 C 10.875 -7.921875 11.367188 -7.644531 11.796875 -7.3125 C 12.234375 -6.976562 12.570312 -6.597656 12.8125 -6.171875 C 13.0625 -5.742188 13.195312 -5.269531 13.21875 -4.75 C 13.25 -4.226562 13.144531 -3.664062 12.90625 -3.0625 L 12.90625 -3.046875 C 12.5625 -2.203125 12.09375 -1.59375 11.5 -1.21875 C 10.914062 -0.84375 10.253906 -0.65625 9.515625 -0.65625 L 10.34375 1.9375 C 10.394531 2.113281 10.425781 2.285156 10.4375 2.453125 C 10.457031 2.628906 10.429688 2.804688 10.359375 2.984375 C 10.234375 3.304688 10.019531 3.519531 9.71875 3.625 C 9.414062 3.738281 9.125 3.738281 8.84375 3.625 C 8.582031 3.519531 8.382812 3.367188 8.25 3.171875 C 8.113281 2.984375 8.003906 2.78125 7.921875 2.5625 L 6.796875 -1.203125 L 4.9375 -1.9375 L 4.015625 0.359375 C 3.890625 0.679688 3.671875 0.910156 3.359375 1.046875 C 3.046875 1.179688 2.726562 1.1875 2.40625 1.0625 C 2.082031 0.9375 1.847656 0.710938 1.703125 0.390625 C 1.566406 0.0664062 1.5625 -0.253906 1.6875 -0.578125 Z M 6.96875 -7.046875 L 5.765625 -4 L 8.125 -3.0625 C 8.695312 -2.84375 9.1875 -2.804688 9.59375 -2.953125 C 10.007812 -3.097656 10.3125 -3.398438 10.5 -3.859375 L 10.5 -3.890625 C 10.707031 -4.398438 10.695312 -4.84375 10.46875 -5.21875 C 10.25 -5.601562 9.851562 -5.910156 9.28125 -6.140625 Z M 6.96875 -7.046875 "/></g></g></g><g fill="#000000" fill-opacity="1"><g transform="translate(154.385889, 293.774793)"><g><path d="M 9.40625 -9.578125 C 10.238281 -9.378906 10.921875 -9.109375 11.453125 -8.765625 C 11.984375 -8.429688 12.441406 -8.019531 12.828125 -7.53125 C 12.921875 -7.40625 12.992188 -7.25 13.046875 -7.0625 C 13.109375 -6.875 13.113281 -6.675781 13.0625 -6.46875 C 12.96875 -6.125 12.773438 -5.867188 12.484375 -5.703125 C 12.203125 -5.535156 11.894531 -5.492188 11.5625 -5.578125 C 11.394531 -5.617188 11.253906 -5.679688 11.140625 -5.765625 C 11.035156 -5.847656 10.953125 -5.925781 10.890625 -6 C 10.617188 -6.332031 10.316406 -6.609375 9.984375 -6.828125 C 9.660156 -7.054688 9.273438 -7.226562 8.828125 -7.34375 C 8.359375 -7.457031 7.90625 -7.472656 7.46875 -7.390625 C 7.03125 -7.316406 6.628906 -7.15625 6.265625 -6.90625 C 5.898438 -6.664062 5.585938 -6.359375 5.328125 -5.984375 C 5.066406 -5.609375 4.878906 -5.179688 4.765625 -4.703125 L 4.75 -4.671875 C 4.632812 -4.203125 4.601562 -3.734375 4.65625 -3.265625 C 4.707031 -2.804688 4.832031 -2.382812 5.03125 -2 C 5.238281 -1.625 5.515625 -1.289062 5.859375 -1 C 6.203125 -0.71875 6.613281 -0.519531 7.09375 -0.40625 C 7.613281 -0.269531 8.078125 -0.226562 8.484375 -0.28125 C 8.890625 -0.332031 9.296875 -0.460938 9.703125 -0.671875 C 9.960938 -0.796875 10.226562 -0.828125 10.5 -0.765625 C 10.800781 -0.679688 11.039062 -0.503906 11.21875 -0.234375 C 11.394531 0.0351562 11.441406 0.328125 11.359375 0.640625 C 11.316406 0.828125 11.238281 0.976562 11.125 1.09375 C 11.007812 1.21875 10.875 1.320312 10.71875 1.40625 C 10.125 1.738281 9.488281 1.941406 8.8125 2.015625 C 8.132812 2.097656 7.347656 2.03125 6.453125 1.8125 C 5.648438 1.613281 4.9375 1.273438 4.3125 0.796875 C 3.6875 0.328125 3.1875 -0.222656 2.8125 -0.859375 C 2.4375 -1.492188 2.191406 -2.191406 2.078125 -2.953125 C 1.960938 -3.722656 2.003906 -4.5 2.203125 -5.28125 L 2.203125 -5.3125 C 2.398438 -6.101562 2.726562 -6.804688 3.1875 -7.421875 C 3.644531 -8.046875 4.191406 -8.554688 4.828125 -8.953125 C 5.460938 -9.347656 6.171875 -9.601562 6.953125 -9.71875 C 7.742188 -9.84375 8.5625 -9.796875 9.40625 -9.578125 Z M 9.40625 -9.578125 "/></g></g></g><g fill="#000000" fill-opacity="1"><g transform="translate(169.020116, 297.235072)"><g><path d="M 1.46875 -1.015625 L 2.453125 -10.03125 C 2.492188 -10.375 2.648438 -10.648438 2.921875 -10.859375 C 3.191406 -11.078125 3.503906 -11.171875 3.859375 -11.140625 C 4.203125 -11.097656 4.484375 -10.941406 4.703125 -10.671875 C 4.921875 -10.398438 5.007812 -10.09375 4.96875 -9.75 L 4.609375 -6.40625 L 9.1875 -5.90625 L 9.546875 -9.25 C 9.585938 -9.59375 9.742188 -9.875 10.015625 -10.09375 C 10.285156 -10.3125 10.59375 -10.398438 10.9375 -10.359375 C 11.28125 -10.328125 11.5625 -10.175781 11.78125 -9.90625 C 12 -9.632812 12.085938 -9.328125 12.046875 -8.984375 L 11.0625 0.03125 C 11.019531 0.375 10.863281 0.65625 10.59375 0.875 C 10.320312 1.09375 10.015625 1.1875 9.671875 1.15625 C 9.328125 1.113281 9.046875 0.957031 8.828125 0.6875 C 8.609375 0.414062 8.519531 0.109375 8.5625 -0.234375 L 8.9375 -3.625 L 4.359375 -4.125 L 3.984375 -0.734375 C 3.941406 -0.390625 3.785156 -0.109375 3.515625 0.109375 C 3.242188 0.328125 2.9375 0.414062 2.59375 0.375 C 2.238281 0.34375 1.953125 0.191406 1.734375 -0.078125 C 1.515625 -0.359375 1.425781 -0.671875 1.46875 -1.015625 Z M 1.46875 -1.015625 "/></g></g></g><g fill="#000000" fill-opacity="1"><g transform="translate(184.322259, 298.660214)"><g><path d="M 1.328125 -1.28125 L 1.140625 -10.171875 C 1.128906 -10.515625 1.242188 -10.8125 1.484375 -11.0625 C 1.722656 -11.3125 2.019531 -11.441406 2.375 -11.453125 L 8.6875 -11.59375 C 9 -11.59375 9.265625 -11.484375 9.484375 -11.265625 C 9.703125 -11.054688 9.8125 -10.796875 9.8125 -10.484375 C 9.820312 -10.171875 9.722656 -9.90625 9.515625 -9.6875 C 9.304688 -9.46875 9.046875 -9.359375 8.734375 -9.359375 L 3.65625 -9.25 L 3.703125 -6.9375 L 8.046875 -7.03125 C 8.359375 -7.03125 8.625 -6.925781 8.84375 -6.71875 C 9.0625 -6.507812 9.175781 -6.242188 9.1875 -5.921875 C 9.195312 -5.609375 9.09375 -5.34375 8.875 -5.125 C 8.664062 -4.914062 8.40625 -4.8125 8.09375 -4.8125 L 3.75 -4.71875 L 3.8125 -2.328125 L 8.96875 -2.4375 C 9.28125 -2.445312 9.546875 -2.34375 9.765625 -2.125 C 9.992188 -1.90625 10.109375 -1.640625 10.109375 -1.328125 C 10.117188 -1.015625 10.015625 -0.75 9.796875 -0.53125 C 9.585938 -0.320312 9.328125 -0.210938 9.015625 -0.203125 L 2.625 -0.0625 C 2.269531 -0.0507812 1.96875 -0.164062 1.71875 -0.40625 C 1.46875 -0.644531 1.335938 -0.9375 1.328125 -1.28125 Z M 1.328125 -1.28125 "/></g></g></g><g fill="#000000" fill-opacity="1"><g transform="translate(198.178445, 298.155037)"><g><path d="M 1.359375 -3.53125 C 1.515625 -3.550781 1.648438 -3.546875 1.765625 -3.515625 C 1.878906 -3.484375 1.984375 -3.445312 2.078125 -3.40625 C 2.554688 -3.15625 3.046875 -2.972656 3.546875 -2.859375 C 4.046875 -2.753906 4.566406 -2.738281 5.109375 -2.8125 C 5.628906 -2.894531 6.015625 -3.046875 6.265625 -3.265625 C 6.523438 -3.492188 6.628906 -3.773438 6.578125 -4.109375 L 6.578125 -4.140625 C 6.554688 -4.304688 6.503906 -4.445312 6.421875 -4.5625 C 6.335938 -4.675781 6.207031 -4.773438 6.03125 -4.859375 C 5.851562 -4.941406 5.609375 -5.015625 5.296875 -5.078125 C 4.984375 -5.140625 4.585938 -5.195312 4.109375 -5.25 C 3.515625 -5.300781 2.972656 -5.375 2.484375 -5.46875 C 1.992188 -5.5625 1.570312 -5.71875 1.21875 -5.9375 C 0.863281 -6.15625 0.566406 -6.4375 0.328125 -6.78125 C 0.0976562 -7.132812 -0.0507812 -7.59375 -0.125 -8.15625 L -0.140625 -8.1875 C -0.210938 -8.695312 -0.179688 -9.171875 -0.046875 -9.609375 C 0.0859375 -10.054688 0.304688 -10.457031 0.609375 -10.8125 C 0.910156 -11.164062 1.289062 -11.453125 1.75 -11.671875 C 2.207031 -11.898438 2.734375 -12.054688 3.328125 -12.140625 C 4.679688 -12.335938 5.914062 -12.1875 7.03125 -11.6875 C 7.175781 -11.601562 7.316406 -11.488281 7.453125 -11.34375 C 7.597656 -11.207031 7.6875 -11.019531 7.71875 -10.78125 C 7.769531 -10.457031 7.695312 -10.164062 7.5 -9.90625 C 7.300781 -9.644531 7.046875 -9.492188 6.734375 -9.453125 C 6.503906 -9.421875 6.285156 -9.453125 6.078125 -9.546875 C 5.179688 -9.941406 4.359375 -10.082031 3.609375 -9.96875 C 3.117188 -9.894531 2.765625 -9.742188 2.546875 -9.515625 C 2.335938 -9.285156 2.253906 -9.03125 2.296875 -8.75 L 2.296875 -8.71875 C 2.328125 -8.53125 2.382812 -8.375 2.46875 -8.25 C 2.5625 -8.132812 2.707031 -8.039062 2.90625 -7.96875 C 3.101562 -7.894531 3.363281 -7.828125 3.6875 -7.765625 C 4.019531 -7.710938 4.4375 -7.65625 4.9375 -7.59375 C 5.519531 -7.539062 6.050781 -7.445312 6.53125 -7.3125 C 7.019531 -7.1875 7.429688 -7.015625 7.765625 -6.796875 C 8.109375 -6.585938 8.382812 -6.3125 8.59375 -5.96875 C 8.800781 -5.632812 8.941406 -5.226562 9.015625 -4.75 L 9.015625 -4.703125 C 9.097656 -4.140625 9.066406 -3.628906 8.921875 -3.171875 C 8.785156 -2.710938 8.554688 -2.304688 8.234375 -1.953125 C 7.910156 -1.609375 7.503906 -1.320312 7.015625 -1.09375 C 6.535156 -0.863281 5.988281 -0.707031 5.375 -0.625 C 4.632812 -0.519531 3.890625 -0.523438 3.140625 -0.640625 C 2.390625 -0.753906 1.660156 -0.988281 0.953125 -1.34375 C 0.796875 -1.414062 0.664062 -1.53125 0.5625 -1.6875 C 0.457031 -1.851562 0.390625 -2.03125 0.359375 -2.21875 C 0.316406 -2.539062 0.390625 -2.828125 0.578125 -3.078125 C 0.765625 -3.328125 1.023438 -3.476562 1.359375 -3.53125 Z M 1.359375 -3.53125 "/></g></g></g><g fill="#000000" fill-opacity="1"><g transform="translate(211.384283, 296.059919)"><g><path d="M -2.234375 -10 C -2.316406 -10.300781 -2.28125 -10.59375 -2.125 -10.875 C -1.96875 -11.15625 -1.738281 -11.335938 -1.4375 -11.421875 L 5.640625 -13.34375 C 5.941406 -13.414062 6.234375 -13.367188 6.515625 -13.203125 C 6.796875 -13.046875 6.976562 -12.816406 7.0625 -12.515625 C 7.144531 -12.210938 7.101562 -11.921875 6.9375 -11.640625 C 6.78125 -11.359375 6.550781 -11.179688 6.25 -11.109375 L 3.90625 -10.46875 L 5.984375 -2.8125 C 6.066406 -2.488281 6.023438 -2.175781 5.859375 -1.875 C 5.703125 -1.570312 5.453125 -1.375 5.109375 -1.28125 C 4.773438 -1.195312 4.457031 -1.238281 4.15625 -1.40625 C 3.851562 -1.582031 3.660156 -1.832031 3.578125 -2.15625 L 1.5 -9.8125 L -0.828125 -9.1875 C -1.128906 -9.101562 -1.414062 -9.140625 -1.6875 -9.296875 C -1.96875 -9.460938 -2.148438 -9.695312 -2.234375 -10 Z M -2.234375 -10 "/></g></g></g><g fill="#000000" fill-opacity="1"><g transform="translate(224.404344, 292.374321)"><g><path d="M -2.625 -9.890625 C -2.75 -10.203125 -2.742188 -10.519531 -2.609375 -10.84375 C -2.472656 -11.164062 -2.242188 -11.394531 -1.921875 -11.53125 L 1.734375 -13.046875 C 2.296875 -13.273438 2.84375 -13.414062 3.375 -13.46875 C 3.914062 -13.53125 4.425781 -13.488281 4.90625 -13.34375 C 5.382812 -13.207031 5.8125 -12.960938 6.1875 -12.609375 C 6.5625 -12.253906 6.875 -11.78125 7.125 -11.1875 L 7.140625 -11.15625 C 7.484375 -10.320312 7.570312 -9.566406 7.40625 -8.890625 C 7.238281 -8.210938 6.890625 -7.613281 6.359375 -7.09375 L 8.78125 -5.796875 C 8.9375 -5.703125 9.078125 -5.597656 9.203125 -5.484375 C 9.335938 -5.378906 9.441406 -5.242188 9.515625 -5.078125 C 9.648438 -4.742188 9.644531 -4.429688 9.5 -4.140625 C 9.351562 -3.859375 9.140625 -3.660156 8.859375 -3.546875 C 8.597656 -3.441406 8.351562 -3.410156 8.125 -3.453125 C 7.90625 -3.503906 7.691406 -3.578125 7.484375 -3.671875 L 4.046875 -5.59375 L 2.1875 -4.84375 L 3.140625 -2.546875 C 3.265625 -2.234375 3.257812 -1.914062 3.125 -1.59375 C 3 -1.269531 2.773438 -1.039062 2.453125 -0.90625 C 2.128906 -0.769531 1.804688 -0.769531 1.484375 -0.90625 C 1.160156 -1.039062 0.9375 -1.265625 0.8125 -1.578125 Z M 0.09375 -9.921875 L 1.34375 -6.90625 L 3.6875 -7.859375 C 4.257812 -8.097656 4.644531 -8.410156 4.84375 -8.796875 C 5.039062 -9.191406 5.046875 -9.617188 4.859375 -10.078125 L 4.84375 -10.109375 C 4.632812 -10.617188 4.316406 -10.929688 3.890625 -11.046875 C 3.460938 -11.160156 2.960938 -11.097656 2.390625 -10.859375 Z M 0.09375 -9.921875 "/></g></g></g><g fill="#000000" fill-opacity="1"><g transform="translate(238.007375, 286.566077)"><g><path d="M -0.171875 -1.765625 L -1.25 -11.5 C -1.300781 -11.84375 -1.257812 -12.148438 -1.125 -12.421875 C -1 -12.703125 -0.785156 -12.929688 -0.484375 -13.109375 L -0.359375 -13.171875 C -0.0546875 -13.347656 0.234375 -13.421875 0.515625 -13.390625 C 0.804688 -13.359375 1.101562 -13.242188 1.40625 -13.046875 L 9.328125 -7.296875 C 9.523438 -7.128906 9.644531 -7.003906 9.6875 -6.921875 C 9.851562 -6.640625 9.894531 -6.335938 9.8125 -6.015625 C 9.738281 -5.703125 9.554688 -5.457031 9.265625 -5.28125 C 9.015625 -5.132812 8.765625 -5.078125 8.515625 -5.109375 C 8.265625 -5.148438 8.023438 -5.253906 7.796875 -5.421875 L 6.234375 -6.578125 L 1.90625 -4.0625 L 2.15625 -2.046875 C 2.1875 -1.773438 2.148438 -1.53125 2.046875 -1.3125 C 1.941406 -1.09375 1.773438 -0.921875 1.546875 -0.796875 C 1.265625 -0.628906 0.96875 -0.585938 0.65625 -0.671875 C 0.351562 -0.753906 0.117188 -0.941406 -0.046875 -1.234375 C -0.0859375 -1.304688 -0.117188 -1.390625 -0.140625 -1.484375 C -0.160156 -1.578125 -0.171875 -1.671875 -0.171875 -1.765625 Z M 1.609375 -6.453125 L 4.328125 -8.03125 L 1.078125 -10.484375 Z M 1.609375 -6.453125 "/></g></g></g></svg>